<svg width="50" height="50" viewBox="0 0 50 50" fill="none" xmlns="http://www.w3.org/2000/svg">
<circle cx="33.3344" cy="33.3331" r="16.6665" fill="#D41776"/>
<circle cx="24.9985" cy="16.6665" r="16.6665" fill="#791145"/>
<circle cx="16.6665" cy="33.3331" r="16.6665" fill="#A7155D"/>
<path fill-rule="evenodd" clip-rule="evenodd" d="M16.8027 31.1794C17.8587 22.9917 24.8563 16.6658 33.3314 16.6658C36.3117 16.6658 39.1092 17.448 41.5299 18.8183C40.474 27.006 33.4763 33.3319 25.0012 33.3319C22.021 33.3319 19.2235 32.5497 16.8027 31.1794Z" fill="#6F103F"/>
<path fill-rule="evenodd" clip-rule="evenodd" d="M8.4707 18.8183C10.8914 17.448 13.689 16.6658 16.6692 16.6658C25.1443 16.6658 32.1419 22.9917 33.1979 31.1794C30.7772 32.5497 27.9796 33.3319 24.9994 33.3319C16.5243 33.3319 9.52666 27.006 8.4707 18.8183Z" fill="#570E33"/>
<path fill-rule="evenodd" clip-rule="evenodd" d="M24.9986 47.7689C29.9798 44.8871 33.3312 39.5012 33.3312 33.3325C33.3312 27.1638 29.9798 21.7779 24.9986 18.8961C20.0173 21.7779 16.666 27.1638 16.666 33.3325C16.666 39.5012 20.0173 44.8871 24.9986 47.7689Z" fill="#961355"/>
<path fill-rule="evenodd" clip-rule="evenodd" d="M33.1921 31.1804C32.5149 25.9251 29.3897 21.4365 24.9971 18.8953C22.319 20.4446 20.112 22.7179 18.6437 25.4474C17.7042 27.1942 17.0672 29.1278 16.8027 31.1781C19.2235 32.5484 22.021 33.3307 25.0012 33.3307C25.1771 33.3307 25.3524 33.328 25.5269 33.3225C28.3074 33.2358 30.9162 32.468 33.1921 31.1804Z" fill="#500E2F"/>
<path d="M22.3326 20.9546V21.3546C21.8792 21.368 21.5326 21.4213 21.2926 21.5146C21.0659 21.5946 20.9126 21.7546 20.8326 21.9946C20.7526 22.2213 20.7126 22.5813 20.7126 23.0746V32.9946C20.7126 33.4746 20.7526 33.8346 20.8326 34.0746C20.9126 34.3146 21.0659 34.4746 21.2926 34.5546C21.5326 34.6346 21.8792 34.688 22.3326 34.7146V35.1146C22.0259 35.088 21.6392 35.0746 21.1726 35.0746C20.7192 35.0613 20.2592 35.0546 19.7926 35.0546C19.2726 35.0546 18.7859 35.0613 18.3326 35.0746C17.8792 35.0746 17.5126 35.088 17.2326 35.1146V34.7146C17.6859 34.688 18.0259 34.6346 18.2526 34.5546C18.4926 34.4746 18.6526 34.3146 18.7326 34.0746C18.8126 33.8346 18.8526 33.4746 18.8526 32.9946V23.0746C18.8526 22.5813 18.8126 22.2213 18.7326 21.9946C18.6526 21.7546 18.4926 21.5946 18.2526 21.5146C18.0259 21.4213 17.6859 21.368 17.2326 21.3546V20.9546C17.5126 20.968 17.8792 20.9813 18.3326 20.9946C18.7859 21.008 19.2726 21.0146 19.7926 21.0146C20.2592 21.0146 20.7192 21.008 21.1726 20.9946C21.6392 20.9813 22.0259 20.968 22.3326 20.9546ZM33.5899 20.9546C33.5366 21.4613 33.4966 21.9546 33.4699 22.4346C33.4566 22.9013 33.4499 23.2613 33.4499 23.5146C33.4499 23.8346 33.4566 24.1346 33.4699 24.4146C33.4833 24.6946 33.4966 24.9413 33.5099 25.1546H33.0499C32.9566 24.2213 32.8299 23.488 32.6699 22.9546C32.5099 22.408 32.2299 22.0146 31.8299 21.7746C31.4299 21.5346 30.8099 21.4146 29.9699 21.4146H28.7099C28.2566 21.4146 27.9099 21.4546 27.6699 21.5346C27.4433 21.6013 27.2899 21.7546 27.2099 21.9946C27.1299 22.2213 27.0899 22.5813 27.0899 23.0746V32.9946C27.0899 33.4746 27.1366 33.8346 27.2299 34.0746C27.3366 34.3146 27.5366 34.4746 27.8299 34.5546C28.1233 34.6346 28.5499 34.688 29.1099 34.7146V35.1146C28.7633 35.088 28.3233 35.0746 27.7899 35.0746C27.2566 35.0613 26.7166 35.0546 26.1699 35.0546C25.6499 35.0546 25.1633 35.0613 24.7099 35.0746C24.2566 35.0746 23.8899 35.088 23.6099 35.1146V34.7146C24.0633 34.688 24.4033 34.6346 24.6299 34.5546C24.8699 34.4746 25.0299 34.3146 25.1099 34.0746C25.1899 33.8346 25.2299 33.4746 25.2299 32.9946V23.0746C25.2299 22.5813 25.1899 22.2213 25.1099 21.9946C25.0299 21.7546 24.8699 21.5946 24.6299 21.5146C24.4033 21.4213 24.0633 21.368 23.6099 21.3546V20.9546C24.2633 20.968 24.9633 20.9813 25.7099 20.9946C26.4566 21.008 27.1566 21.0146 27.8099 21.0146C28.4766 21.0146 29.0099 21.0146 29.4099 21.0146C30.0233 21.0146 30.7166 21.0146 31.4899 21.0146C32.2766 21.0013 32.9766 20.9813 33.5899 20.9546ZM30.4899 27.9946C30.4899 27.9946 30.4899 28.0613 30.4899 28.1946C30.4899 28.328 30.4899 28.3946 30.4899 28.3946H26.4899C26.4899 28.3946 26.4899 28.328 26.4899 28.1946C26.4899 28.0613 26.4899 27.9946 26.4899 27.9946H30.4899ZM30.8699 25.3546C30.8166 26.1146 30.7899 26.6946 30.7899 27.0946C30.8033 27.4946 30.8099 27.8613 30.8099 28.1946C30.8099 28.528 30.8166 28.8946 30.8299 29.2946C30.8433 29.6946 30.8766 30.2746 30.9299 31.0346H30.4699C30.4166 30.608 30.3499 30.1946 30.2699 29.7946C30.2033 29.3813 30.0433 29.048 29.7899 28.7946C29.5499 28.528 29.1366 28.3946 28.5499 28.3946V27.9946C29.1366 27.9946 29.5433 27.8413 29.7699 27.5346C30.0099 27.228 30.1633 26.868 30.2299 26.4546C30.2966 26.0413 30.3566 25.6746 30.4099 25.3546H30.8699Z" fill="white"/>
</svg>
